<svg version="1.1" xmlns="http://www.w3.org/2000/svg" xmlns:xlink="http://www.w3.org/1999/xlink"  width="500px" height="500px" viewBox="0 0 500 500" enable-background="new 0 0 500 500" xml:space="preserve">
	<path fill="#664726" d="M388.829,483.628V315.319c0-42.286-15.152-71.135-53.009-71.135 c-28.901,0-46.125,19.452-53.679,38.244c-2.768,6.72-3.446,16.115-3.446,25.512v175.688H174.07c0,0,1.375-285.08,0-314.598h104.625 v44.549c13.903-21.435,38.785-51.933,94.294-51.933c68.84,0,120.455,44.964,120.455,141.592v180.39H388.829z M63.855,126.079h-0.678 c-35.116,0-57.821-24.159-57.821-54.351c0-30.87,23.393-54.355,59.188-54.355c35.794,0,57.83,23.485,58.509,54.355 C123.052,101.919,100.337,126.079,63.855,126.079z M116.168,483.628H11.534V169.03h104.634V483.628z"/>
</svg>
