<svg version="1.1" xmlns="http://www.w3.org/2000/svg" xmlns:xlink="http://www.w3.org/1999/xlink" width="500px" height="500px" viewBox="0 0 500 500" enable-background="new 0 0 500 500" xml:space="preserve">
	<path fill="#664726" d="M45.815,497.495v-94.204H68.08c7.743,8.754,19.024,14.304,31.628,14.304 c23.337,0,42.26-18.925,42.26-42.274c0-23.347-18.922-42.276-42.26-42.276c-12.601,0-23.883,5.549-31.625,14.303H45.815V149.82 H68.08c7.743,8.753,19.024,14.303,31.628,14.303c23.337,0,42.26-18.924,42.26-42.274c0-23.347-18.922-42.277-42.26-42.277 c-12.601,0-23.883,5.549-31.625,14.303H45.815V3.492h449.673v494.003H45.815z M450.389,48.61H149.457v403.766h300.932V48.61z  M217.547,210.962c10.533-4.45,22.214-9.618,32.723-13.936c2.999-0.818,6-1.639,8.999-2.459c3.58-2.468,7.086-10.673,9.001-14.752 l4.259-1.037c-0.967-5.388-4.297-5.806-5.684-9.62c-0.544-5.736-1.089-11.476-1.635-17.213c0.025,0.271-3.917-0.72-4.433-1.044 c-5.557-3.488-5.669-17.654-6.204-23.545c-0.244-2.694,3.494-4.901,2.454-9.838c-6.089-28.912,2.633-42.441,16.425-46.927 c9.571-3.887,27.442-11.093,44.112-0.819l4.137,3.841l6.694,1.156c3.357,1.942,5.5,8.387,5.5,8.387 c1.765,7.115,1.94,7.706,1.776,15.011c-0.065,2.814-1.68,15.834-1.241,19.827c0.361,3.294,1.18,3.555,2.478,6.269 c2.258,4.724,1.502,11.239,0.636,16.001c-0.474,2.605-1.476,6.315-2.998,8.442c-1.678,2.344-5.036,2.362-6.521,5.097 c-2.141,3.938-0.932,9.466-2.281,13.719c-1.532,4.824-5.432,5.162-5.728,11.474c1.912,0.271,3.82,0.546,5.728,0.819 c1.915,4.079,5.42,12.284,9.001,14.752c2.999,0.821,6,1.641,8.998,2.459c10.51,4.317,22.19,9.485,32.723,13.936 c9.593,4.053,21.076,5.499,24.544,15.574c0,6.84,0.643,23.001,0.467,31.966H192.537c-0.176-8.965,0.467-25.126,0.467-31.966 C196.472,216.461,207.955,215.016,217.547,210.962z M389.5,301.5h-194v-17h194V301.5z M362.5,341.5h-167v-17h167V341.5z  M403.5,381.5h-208v-17h208V381.5z M339.5,421.5h-144v-17h144V421.5z M124.332,121.846c0,11.624-9.418,21.046-21.035,21.046H27.526 c-11.614,0-21.035-9.422-21.035-21.046c0-11.621,9.421-21.043,21.035-21.043h75.771 C114.914,100.803,124.332,110.225,124.332,121.846z M27.526,354.274h75.771c11.617,0,21.035,9.423,21.035,21.043 c0,11.624-9.418,21.046-21.035,21.046H27.526c-11.614,0-21.035-9.422-21.035-21.046C6.492,363.697,15.913,354.274,27.526,354.274z" />
</svg>
