<svg version="1.1" xmlns="http://www.w3.org/2000/svg" xmlns:xlink="http://www.w3.org/1999/xlink" width="500px" height="500px" viewBox="0 0 500 500" enable-background="new 0 0 500 500" xml:space="preserve">
	<path fill="#664726" d="M498.9,96.425c-18.349,8.142-38.082,13.635-58.8,16.099 c21.144-12.646,37.37-32.682,45.017-56.571c-19.783,11.723-41.683,20.234-65.008,24.823c-18.669-19.873-45.278-32.292-74.72-32.292 c-56.535,0-102.374,45.782-102.374,102.25c0,8.013,0.905,15.813,2.65,23.296c-85.082-4.258-160.52-44.962-211.01-106.83 c-3.336,5.717-44.18,85.858,31.683,136.513c-16.777-0.538-32.569-5.132-46.367-12.795c-0.009,0.425-0.009,0.855-0.009,1.295 c0,49.531,35.288,90.857,82.124,100.258c-19.865,5.392-36.654,3.589-46.238,1.749c13.033,40.62,50.838,70.186,95.627,71.01 C111.597,410.646,13.39,407.575-0.083,407.575c45.313,29.017,99.118,45.94,156.929,45.94c302.158,0,290.98-289.186,290.98-304.156 C467.822,134.946,485.186,116.936,498.9,96.425z"/>
</svg>
